<mxfile host="app.diagrams.net" agent="Mozilla/5.0 (Windows NT 10.0; Win64; x64) AppleWebKit/537.36 (KHTML, like Gecko) Chrome/140.0.0.0 Safari/537.36" version="28.2.4">
  <diagram id="Zp9EVexEPEGQYnYK_Jo4" name="test">
    <mxGraphModel dx="783" dy="1091" grid="1" gridSize="10" guides="1" tooltips="1" connect="1" arrows="1" fold="1" page="1" pageScale="1" pageWidth="2339" pageHeight="3300" math="0" shadow="0">
      <root>
        <mxCell id="0" />
        <mxCell id="1" parent="0" />
        <mxCell id="ir0JnkfMoFTAIek_8BSR-1" value="" style="rounded=0;whiteSpace=wrap;html=1;" parent="1" vertex="1">
          <mxGeometry x="670" y="180" width="880" height="320" as="geometry" />
        </mxCell>
        <mxCell id="ir0JnkfMoFTAIek_8BSR-2" value="" style="rounded=0;whiteSpace=wrap;html=1;" parent="1" vertex="1">
          <mxGeometry x="660" y="160" width="870" height="320" as="geometry" />
        </mxCell>
        <mxCell id="ir0JnkfMoFTAIek_8BSR-3" value="" style="rounded=0;whiteSpace=wrap;html=1;strokeWidth=2;" parent="1" vertex="1">
          <mxGeometry x="620" y="150" width="890" height="310" as="geometry" />
        </mxCell>
        <mxCell id="ir0JnkfMoFTAIek_8BSR-4" value="" style="shape=actor;whiteSpace=wrap;html=1;" parent="1" vertex="1">
          <mxGeometry x="180" y="140" width="60" height="80" as="geometry" />
        </mxCell>
        <mxCell id="ir0JnkfMoFTAIek_8BSR-5" value="" style="shape=actor;whiteSpace=wrap;html=1;" parent="1" vertex="1">
          <mxGeometry x="180" y="250" width="60" height="80" as="geometry" />
        </mxCell>
        <mxCell id="ir0JnkfMoFTAIek_8BSR-6" value="" style="shape=actor;whiteSpace=wrap;html=1;" parent="1" vertex="1">
          <mxGeometry x="180" y="370" width="60" height="80" as="geometry" />
        </mxCell>
        <mxCell id="ir0JnkfMoFTAIek_8BSR-7" value="" style="edgeStyle=orthogonalEdgeStyle;rounded=0;orthogonalLoop=1;jettySize=auto;html=1;" parent="1" source="ir0JnkfMoFTAIek_8BSR-8" target="ir0JnkfMoFTAIek_8BSR-13" edge="1">
          <mxGeometry relative="1" as="geometry" />
        </mxCell>
        <mxCell id="ir0JnkfMoFTAIek_8BSR-8" value="Client" style="text;html=1;align=center;verticalAlign=middle;whiteSpace=wrap;rounded=0;" parent="1" vertex="1">
          <mxGeometry x="180" y="190" width="60" height="30" as="geometry" />
        </mxCell>
        <mxCell id="ir0JnkfMoFTAIek_8BSR-9" style="edgeStyle=orthogonalEdgeStyle;rounded=0;orthogonalLoop=1;jettySize=auto;html=1;entryX=0;entryY=0.5;entryDx=0;entryDy=0;" parent="1" source="ir0JnkfMoFTAIek_8BSR-10" target="ir0JnkfMoFTAIek_8BSR-13" edge="1">
          <mxGeometry relative="1" as="geometry" />
        </mxCell>
        <mxCell id="ir0JnkfMoFTAIek_8BSR-10" value="Client" style="text;html=1;align=center;verticalAlign=middle;whiteSpace=wrap;rounded=0;" parent="1" vertex="1">
          <mxGeometry x="180" y="300" width="60" height="30" as="geometry" />
        </mxCell>
        <mxCell id="ir0JnkfMoFTAIek_8BSR-11" style="edgeStyle=orthogonalEdgeStyle;rounded=0;orthogonalLoop=1;jettySize=auto;html=1;entryX=0.5;entryY=1;entryDx=0;entryDy=0;" parent="1" source="ir0JnkfMoFTAIek_8BSR-12" target="ir0JnkfMoFTAIek_8BSR-13" edge="1">
          <mxGeometry relative="1" as="geometry" />
        </mxCell>
        <mxCell id="ir0JnkfMoFTAIek_8BSR-12" value="Client" style="text;html=1;align=center;verticalAlign=middle;whiteSpace=wrap;rounded=0;" parent="1" vertex="1">
          <mxGeometry x="180" y="420" width="60" height="30" as="geometry" />
        </mxCell>
        <mxCell id="ir0JnkfMoFTAIek_8BSR-13" value="Load&lt;br&gt;Balancer" style="rhombus;whiteSpace=wrap;html=1;" parent="1" vertex="1">
          <mxGeometry x="280" y="275" width="80" height="80" as="geometry" />
        </mxCell>
        <mxCell id="ir0JnkfMoFTAIek_8BSR-14" value="Frontend" style="swimlane;whiteSpace=wrap;html=1;dashed=1;" parent="1" vertex="1">
          <mxGeometry x="410" y="110" width="200" height="410" as="geometry" />
        </mxCell>
        <mxCell id="ir0JnkfMoFTAIek_8BSR-15" value="" style="swimlane;startSize=0;" parent="ir0JnkfMoFTAIek_8BSR-14" vertex="1">
          <mxGeometry x="90" y="60" width="60" height="290" as="geometry" />
        </mxCell>
        <mxCell id="ir0JnkfMoFTAIek_8BSR-16" value="" style="rounded=0;whiteSpace=wrap;html=1;fillColor=#f8cecc;strokeColor=#b85450;" parent="ir0JnkfMoFTAIek_8BSR-15" vertex="1">
          <mxGeometry x="-30" y="-10" width="80" height="290" as="geometry" />
        </mxCell>
        <mxCell id="ir0JnkfMoFTAIek_8BSR-17" value="UI" style="text;html=1;align=center;verticalAlign=middle;resizable=0;points=[];autosize=1;strokeColor=none;fillColor=none;" parent="ir0JnkfMoFTAIek_8BSR-15" vertex="1">
          <mxGeometry x="-10" y="-10" width="40" height="30" as="geometry" />
        </mxCell>
        <mxCell id="ir0JnkfMoFTAIek_8BSR-18" value="SPA" style="text;html=1;align=center;verticalAlign=middle;whiteSpace=wrap;rounded=0;" parent="ir0JnkfMoFTAIek_8BSR-15" vertex="1">
          <mxGeometry x="-20" y="120" width="60" height="30" as="geometry" />
        </mxCell>
        <mxCell id="ir0JnkfMoFTAIek_8BSR-19" style="edgeStyle=orthogonalEdgeStyle;rounded=0;orthogonalLoop=1;jettySize=auto;html=1;entryX=0.011;entryY=0.533;entryDx=0;entryDy=0;entryPerimeter=0;" parent="1" source="ir0JnkfMoFTAIek_8BSR-13" target="ir0JnkfMoFTAIek_8BSR-16" edge="1">
          <mxGeometry relative="1" as="geometry" />
        </mxCell>
        <mxCell id="ir0JnkfMoFTAIek_8BSR-20" value="Backend" style="swimlane;whiteSpace=wrap;html=1;dashed=1;" parent="1" vertex="1">
          <mxGeometry x="610" y="110" width="960" height="410" as="geometry" />
        </mxCell>
        <mxCell id="ir0JnkfMoFTAIek_8BSR-21" value="" style="swimlane;startSize=0;" parent="ir0JnkfMoFTAIek_8BSR-20" vertex="1">
          <mxGeometry x="30" y="60" width="270" height="270" as="geometry" />
        </mxCell>
        <mxCell id="ir0JnkfMoFTAIek_8BSR-22" value="&lt;b&gt;Product&lt;/b&gt;" style="text;html=1;align=center;verticalAlign=middle;whiteSpace=wrap;rounded=0;" parent="ir0JnkfMoFTAIek_8BSR-21" vertex="1">
          <mxGeometry x="115" width="60" height="30" as="geometry" />
        </mxCell>
        <mxCell id="ir0JnkfMoFTAIek_8BSR-23" value="UI" style="rounded=0;whiteSpace=wrap;html=1;fillColor=#f8cecc;strokeColor=#b85450;" parent="ir0JnkfMoFTAIek_8BSR-21" vertex="1">
          <mxGeometry x="30" y="30" width="210" height="50" as="geometry" />
        </mxCell>
        <mxCell id="ir0JnkfMoFTAIek_8BSR-24" value="Business Logic" style="rounded=0;whiteSpace=wrap;html=1;fillColor=#f8cecc;strokeColor=#b85450;" parent="ir0JnkfMoFTAIek_8BSR-21" vertex="1">
          <mxGeometry x="30" y="100" width="210" height="50" as="geometry" />
        </mxCell>
        <mxCell id="ir0JnkfMoFTAIek_8BSR-25" value="Data&lt;br&gt;Access" style="rounded=0;whiteSpace=wrap;html=1;fillColor=#f8cecc;strokeColor=#b85450;" parent="ir0JnkfMoFTAIek_8BSR-21" vertex="1">
          <mxGeometry x="30" y="170" width="210" height="50" as="geometry" />
        </mxCell>
        <mxCell id="ir0JnkfMoFTAIek_8BSR-26" value="" style="rounded=0;whiteSpace=wrap;html=1;fillColor=#f8cecc;strokeColor=#b85450;" parent="ir0JnkfMoFTAIek_8BSR-21" vertex="1">
          <mxGeometry x="30" y="30" width="60" height="190" as="geometry" />
        </mxCell>
        <mxCell id="ir0JnkfMoFTAIek_8BSR-27" value="&lt;b&gt;Listing products&lt;/b&gt;" style="text;html=1;align=center;verticalAlign=middle;whiteSpace=wrap;rounded=0;rotation=90;" parent="ir0JnkfMoFTAIek_8BSR-21" vertex="1">
          <mxGeometry x="10" y="110" width="100" height="30" as="geometry" />
        </mxCell>
        <mxCell id="ir0JnkfMoFTAIek_8BSR-28" value="" style="swimlane;startSize=0;" parent="ir0JnkfMoFTAIek_8BSR-20" vertex="1">
          <mxGeometry x="320" y="60" width="270" height="270" as="geometry" />
        </mxCell>
        <mxCell id="ir0JnkfMoFTAIek_8BSR-29" value="&lt;b&gt;Cart&lt;/b&gt;" style="text;html=1;align=center;verticalAlign=middle;whiteSpace=wrap;rounded=0;" parent="ir0JnkfMoFTAIek_8BSR-28" vertex="1">
          <mxGeometry x="115" width="60" height="30" as="geometry" />
        </mxCell>
        <mxCell id="ir0JnkfMoFTAIek_8BSR-30" value="UI" style="rounded=0;whiteSpace=wrap;html=1;fillColor=#f8cecc;strokeColor=#b85450;" parent="ir0JnkfMoFTAIek_8BSR-28" vertex="1">
          <mxGeometry x="30" y="30" width="210" height="50" as="geometry" />
        </mxCell>
        <mxCell id="ir0JnkfMoFTAIek_8BSR-31" value="Business Logic" style="rounded=0;whiteSpace=wrap;html=1;fillColor=#f8cecc;strokeColor=#b85450;" parent="ir0JnkfMoFTAIek_8BSR-28" vertex="1">
          <mxGeometry x="30" y="100" width="210" height="50" as="geometry" />
        </mxCell>
        <mxCell id="ir0JnkfMoFTAIek_8BSR-32" value="Data&lt;br&gt;Access" style="rounded=0;whiteSpace=wrap;html=1;fillColor=#f8cecc;strokeColor=#b85450;" parent="ir0JnkfMoFTAIek_8BSR-28" vertex="1">
          <mxGeometry x="30" y="170" width="210" height="50" as="geometry" />
        </mxCell>
        <mxCell id="ir0JnkfMoFTAIek_8BSR-33" value="" style="rounded=0;whiteSpace=wrap;html=1;fillColor=#f8cecc;strokeColor=#b85450;" parent="ir0JnkfMoFTAIek_8BSR-28" vertex="1">
          <mxGeometry x="30" y="30" width="60" height="190" as="geometry" />
        </mxCell>
        <mxCell id="ir0JnkfMoFTAIek_8BSR-34" value="&lt;b&gt;add to cart&lt;/b&gt;" style="text;html=1;align=center;verticalAlign=middle;whiteSpace=wrap;rounded=0;rotation=90;" parent="ir0JnkfMoFTAIek_8BSR-28" vertex="1">
          <mxGeometry x="10" y="110" width="100" height="30" as="geometry" />
        </mxCell>
        <mxCell id="ir0JnkfMoFTAIek_8BSR-35" value="" style="swimlane;startSize=0;" parent="ir0JnkfMoFTAIek_8BSR-20" vertex="1">
          <mxGeometry x="610" y="60" width="270" height="270" as="geometry" />
        </mxCell>
        <mxCell id="ir0JnkfMoFTAIek_8BSR-36" value="&lt;b&gt;Order&lt;/b&gt;" style="text;html=1;align=center;verticalAlign=middle;whiteSpace=wrap;rounded=0;" parent="ir0JnkfMoFTAIek_8BSR-35" vertex="1">
          <mxGeometry x="115" width="60" height="30" as="geometry" />
        </mxCell>
        <mxCell id="ir0JnkfMoFTAIek_8BSR-37" value="" style="rounded=0;whiteSpace=wrap;html=1;fillColor=#f8cecc;strokeColor=#b85450;" parent="ir0JnkfMoFTAIek_8BSR-35" vertex="1">
          <mxGeometry x="30" y="30" width="60" height="190" as="geometry" />
        </mxCell>
        <mxCell id="ir0JnkfMoFTAIek_8BSR-38" value="&lt;b&gt;checkout order&lt;/b&gt;" style="text;html=1;align=center;verticalAlign=middle;whiteSpace=wrap;rounded=0;rotation=90;" parent="ir0JnkfMoFTAIek_8BSR-35" vertex="1">
          <mxGeometry x="10" y="110" width="100" height="30" as="geometry" />
        </mxCell>
        <mxCell id="ir0JnkfMoFTAIek_8BSR-39" value="" style="ellipse;whiteSpace=wrap;html=1;aspect=fixed;fillColor=#f8cecc;strokeColor=#b85450;" parent="ir0JnkfMoFTAIek_8BSR-35" vertex="1">
          <mxGeometry x="77.5" y="70" width="115" height="115" as="geometry" />
        </mxCell>
        <mxCell id="ir0JnkfMoFTAIek_8BSR-40" value="" style="ellipse;whiteSpace=wrap;html=1;aspect=fixed;fillColor=#f8cecc;strokeColor=#b85450;" parent="ir0JnkfMoFTAIek_8BSR-35" vertex="1">
          <mxGeometry x="95" y="85" width="80" height="80" as="geometry" />
        </mxCell>
        <mxCell id="ir0JnkfMoFTAIek_8BSR-41" value="" style="ellipse;whiteSpace=wrap;html=1;aspect=fixed;fillColor=#f8cecc;strokeColor=#b85450;" parent="ir0JnkfMoFTAIek_8BSR-35" vertex="1">
          <mxGeometry x="110" y="100" width="50" height="50" as="geometry" />
        </mxCell>
        <mxCell id="ir0JnkfMoFTAIek_8BSR-42" value="Clean&lt;br&gt;Architecture" style="text;html=1;align=center;verticalAlign=middle;whiteSpace=wrap;rounded=0;" parent="ir0JnkfMoFTAIek_8BSR-35" vertex="1">
          <mxGeometry x="105" y="110" width="60" height="30" as="geometry" />
        </mxCell>
        <mxCell id="ir0JnkfMoFTAIek_8BSR-43" value="" style="shape=cylinder3;whiteSpace=wrap;html=1;boundedLbl=1;backgroundOutline=1;size=15;" parent="1" vertex="1">
          <mxGeometry x="1610" y="180" width="170" height="290" as="geometry" />
        </mxCell>
        <mxCell id="ir0JnkfMoFTAIek_8BSR-44" value="&lt;b&gt;&lt;font style=&quot;font-size: 17px;&quot;&gt;RDBMS&lt;/font&gt;&lt;/b&gt;" style="text;html=1;align=center;verticalAlign=middle;whiteSpace=wrap;rounded=0;" parent="1" vertex="1">
          <mxGeometry x="1665" y="290" width="60" height="30" as="geometry" />
        </mxCell>
        <mxCell id="ir0JnkfMoFTAIek_8BSR-45" value="" style="shape=cylinder3;whiteSpace=wrap;html=1;boundedLbl=1;backgroundOutline=1;size=15;" parent="1" vertex="1">
          <mxGeometry x="1620" y="365" width="60" height="100" as="geometry" />
        </mxCell>
        <mxCell id="ir0JnkfMoFTAIek_8BSR-46" value="" style="shape=cylinder3;whiteSpace=wrap;html=1;boundedLbl=1;backgroundOutline=1;size=15;" parent="1" vertex="1">
          <mxGeometry x="1710" y="370" width="60" height="95" as="geometry" />
        </mxCell>
        <mxCell id="ir0JnkfMoFTAIek_8BSR-47" value="Product&lt;br&gt;schema" style="text;html=1;align=center;verticalAlign=middle;whiteSpace=wrap;rounded=0;" parent="1" vertex="1">
          <mxGeometry x="1620" y="402.5" width="60" height="30" as="geometry" />
        </mxCell>
        <mxCell id="ir0JnkfMoFTAIek_8BSR-48" value="Order&lt;br&gt;Schema" style="text;html=1;align=center;verticalAlign=middle;whiteSpace=wrap;rounded=0;" parent="1" vertex="1">
          <mxGeometry x="1710" y="402.5" width="60" height="30" as="geometry" />
        </mxCell>
        <mxCell id="ir0JnkfMoFTAIek_8BSR-49" value="" style="endArrow=classic;html=1;rounded=0;exitX=1;exitY=0.5;exitDx=0;exitDy=0;entryX=0;entryY=0.5;entryDx=0;entryDy=0;" parent="1" source="ir0JnkfMoFTAIek_8BSR-15" target="ir0JnkfMoFTAIek_8BSR-20" edge="1">
          <mxGeometry width="50" height="50" relative="1" as="geometry">
            <mxPoint x="620" y="670" as="sourcePoint" />
            <mxPoint x="670" y="620" as="targetPoint" />
          </mxGeometry>
        </mxCell>
        <mxCell id="ir0JnkfMoFTAIek_8BSR-50" value="" style="endArrow=classic;html=1;rounded=0;exitX=1;exitY=0.5;exitDx=0;exitDy=0;entryX=-0.013;entryY=0.439;entryDx=0;entryDy=0;entryPerimeter=0;" parent="1" source="ir0JnkfMoFTAIek_8BSR-3" target="ir0JnkfMoFTAIek_8BSR-43" edge="1">
          <mxGeometry width="50" height="50" relative="1" as="geometry">
            <mxPoint x="1570" y="620" as="sourcePoint" />
            <mxPoint x="1620" y="570" as="targetPoint" />
          </mxGeometry>
        </mxCell>
      </root>
    </mxGraphModel>
  </diagram>
</mxfile>
